<mxfile host="app.diagrams.net" modified="2024-03-29T08:16:21.064Z" agent="Mozilla/5.0 (Windows NT 10.0; Win64; x64) AppleWebKit/537.36 (KHTML, like Gecko) Chrome/122.0.0.0 Safari/537.36" etag="ZUCdEFz-FF8TrwN5aMr6" version="24.0.6" type="device">
  <diagram name="Trang-1" id="aZgFJnuRZRh-k-zDKKGE">
    <mxGraphModel dx="1034" dy="446" grid="1" gridSize="10" guides="1" tooltips="1" connect="1" arrows="1" fold="1" page="1" pageScale="1" pageWidth="827" pageHeight="1169" math="0" shadow="0">
      <root>
        <mxCell id="0" />
        <mxCell id="1" parent="0" />
        <mxCell id="24yCK817Y9pXHCdPUFfq-1" value="User" style="shape=umlActor;verticalLabelPosition=bottom;verticalAlign=top;html=1;outlineConnect=0;" vertex="1" parent="1">
          <mxGeometry x="60" y="300" width="30" height="60" as="geometry" />
        </mxCell>
        <mxCell id="24yCK817Y9pXHCdPUFfq-2" value="Xem các Notification" style="ellipse;whiteSpace=wrap;html=1;" vertex="1" parent="1">
          <mxGeometry x="344" y="300" width="140" height="70" as="geometry" />
        </mxCell>
        <mxCell id="24yCK817Y9pXHCdPUFfq-3" value="Cập nhật Notification" style="ellipse;whiteSpace=wrap;html=1;" vertex="1" parent="1">
          <mxGeometry x="344" y="170" width="140" height="70" as="geometry" />
        </mxCell>
        <mxCell id="24yCK817Y9pXHCdPUFfq-4" value="Click vào Notification" style="ellipse;whiteSpace=wrap;html=1;" vertex="1" parent="1">
          <mxGeometry x="344" y="400" width="140" height="70" as="geometry" />
        </mxCell>
        <mxCell id="24yCK817Y9pXHCdPUFfq-6" value="" style="endArrow=none;html=1;rounded=0;" edge="1" parent="1" source="24yCK817Y9pXHCdPUFfq-1" target="24yCK817Y9pXHCdPUFfq-4">
          <mxGeometry width="50" height="50" relative="1" as="geometry">
            <mxPoint x="100" y="341" as="sourcePoint" />
            <mxPoint x="351" y="360" as="targetPoint" />
          </mxGeometry>
        </mxCell>
        <mxCell id="24yCK817Y9pXHCdPUFfq-7" value="" style="endArrow=none;html=1;rounded=0;" edge="1" parent="1" source="24yCK817Y9pXHCdPUFfq-1" target="24yCK817Y9pXHCdPUFfq-2">
          <mxGeometry width="50" height="50" relative="1" as="geometry">
            <mxPoint x="110" y="351" as="sourcePoint" />
            <mxPoint x="361" y="370" as="targetPoint" />
          </mxGeometry>
        </mxCell>
        <mxCell id="24yCK817Y9pXHCdPUFfq-27" value="" style="endArrow=block;html=1;rounded=0;align=center;verticalAlign=bottom;endFill=0;labelBackgroundColor=none;endSize=8;" edge="1" parent="1" source="24yCK817Y9pXHCdPUFfq-15">
          <mxGeometry relative="1" as="geometry">
            <mxPoint x="-10" y="175" as="sourcePoint" />
            <mxPoint x="230" y="185" as="targetPoint" />
          </mxGeometry>
        </mxCell>
        <mxCell id="24yCK817Y9pXHCdPUFfq-28" value="" style="resizable=0;html=1;align=center;verticalAlign=top;labelBackgroundColor=none;" connectable="0" vertex="1" parent="24yCK817Y9pXHCdPUFfq-27">
          <mxGeometry relative="1" as="geometry" />
        </mxCell>
        <mxCell id="24yCK817Y9pXHCdPUFfq-29" value="&amp;lt;&amp;lt;extend&amp;gt;&amp;gt;" style="html=1;verticalAlign=bottom;labelBackgroundColor=none;endArrow=open;endFill=0;dashed=1;rounded=0;" edge="1" parent="1" source="24yCK817Y9pXHCdPUFfq-3" target="24yCK817Y9pXHCdPUFfq-2">
          <mxGeometry x="0.1199" y="28" width="160" relative="1" as="geometry">
            <mxPoint x="567" y="418" as="sourcePoint" />
            <mxPoint x="463" y="462" as="targetPoint" />
            <mxPoint as="offset" />
          </mxGeometry>
        </mxCell>
        <mxCell id="24yCK817Y9pXHCdPUFfq-30" value="Thay đổi trạng thái đã xem" style="ellipse;whiteSpace=wrap;html=1;" vertex="1" parent="1">
          <mxGeometry x="578" y="300" width="140" height="70" as="geometry" />
        </mxCell>
        <mxCell id="24yCK817Y9pXHCdPUFfq-31" value="&amp;lt;&amp;lt;include&amp;gt;&amp;gt;" style="html=1;verticalAlign=bottom;labelBackgroundColor=none;endArrow=open;endFill=0;dashed=1;rounded=0;" edge="1" parent="1" target="24yCK817Y9pXHCdPUFfq-30" source="24yCK817Y9pXHCdPUFfq-2">
          <mxGeometry x="-0.0396" y="4" width="160" relative="1" as="geometry">
            <mxPoint x="484" y="314" as="sourcePoint" />
            <mxPoint x="579" y="187.5" as="targetPoint" />
            <mxPoint as="offset" />
          </mxGeometry>
        </mxCell>
      </root>
    </mxGraphModel>
  </diagram>
</mxfile>
